<?xml version="1.0" standalone="no"?>
<!DOCTYPE svg PUBLIC "-//W3C//DTD SVG 20010904//EN"
 "http://www.w3.org/TR/2001/REC-SVG-20010904/DTD/svg10.dtd">
<svg version="1.0" xmlns="http://www.w3.org/2000/svg"
 width="752.000000pt" height="834.000000pt" viewBox="0 0 752.000000 834.000000"
 preserveAspectRatio="xMidYMid meet">
<metadata>
Created by potrace 1.16, written by Peter Selinger 2001-2019
</metadata>
<g transform="translate(0.000000,834.000000) scale(0.100000,-0.100000)"
fill="#000000" stroke="none">
<path d="M6333 7839 c-4 -12 -17 -22 -34 -26 -16 -3 -29 -9 -29 -14 0 -5 -8
-9 -18 -9 -9 0 -41 -9 -70 -19 -29 -11 -56 -20 -60 -20 -4 -1 -7 -4 -8 -8 0
-5 -4 -16 -9 -27 -16 -35 46 -50 67 -16 7 11 17 20 23 20 5 0 19 12 32 26 24
28 60 29 55 1 -2 -12 4 -17 23 -17 16 0 25 6 25 15 0 8 6 15 13 15 21 1 57 37
57 59 0 12 5 21 10 21 6 0 10 5 10 10 0 6 -18 10 -41 10 -33 0 -42 -4 -46 -21z"/>
<path d="M6463 7754 c-7 -15 -10 -30 -8 -34 2 -4 -7 -18 -20 -30 l-25 -23 0
32 0 32 -47 -7 c-27 -3 -55 -13 -64 -20 -8 -8 -21 -14 -27 -14 -6 0 -19 -11
-30 -25 -22 -28 -34 -30 -61 -13 -22 14 -55 3 -48 -16 4 -9 -2 -12 -18 -8 -16
3 -28 -2 -37 -17 -14 -22 -71 -30 -83 -11 -4 6 -3 10 2 9 23 -4 53 2 53 11 0
6 -18 10 -41 10 -32 0 -40 -3 -35 -15 3 -9 0 -15 -9 -15 -7 0 -22 -11 -33 -25
-25 -31 -35 -31 -67 1 -33 33 -67 29 -71 -8 -2 -18 3 -28 14 -31 10 -3 6 -5
-10 -6 -35 -1 -44 -18 -24 -40 14 -15 14 -19 3 -24 -19 -7 -45 62 -27 73 9 6
10 52 1 98 -1 2 -11 2 -23 0 -15 -2 -22 -9 -20 -19 3 -19 -23 -43 -37 -35 -5
3 -7 15 -4 26 4 14 0 20 -11 20 -30 0 -66 -31 -66 -56 0 -13 -6 -24 -13 -24
-16 0 -36 -39 -30 -57 3 -7 17 -13 31 -14 15 0 21 -3 15 -6 -7 -2 -13 -13 -13
-23 0 -28 -36 -57 -76 -62 -28 -3 -34 -1 -34 14 0 11 7 18 20 18 11 0 20 6 20
14 0 9 8 12 24 9 13 -3 27 0 30 6 11 17 -22 25 -47 12 -12 -6 -31 -13 -42 -14
-35 -6 -75 -26 -75 -37 0 -5 -6 -10 -14 -10 -7 0 -19 -7 -26 -15 -10 -12 -10
-18 0 -30 10 -12 10 -15 -4 -15 -14 0 -14 -3 -4 -20 7 -10 9 -22 5 -26 -10
-11 -17 -1 -19 29 -2 27 -30 38 -43 17 -12 -19 -35 -10 -35 14 0 15 7 26 20
29 23 6 25 24 5 50 -18 24 -60 19 -60 -7 0 -11 -6 -21 -13 -24 -6 -2 -12 -11
-12 -21 0 -9 -6 -23 -12 -30 -11 -11 -10 -15 4 -24 15 -10 6 -14 -50 -27 -46
-10 -67 -20 -67 -30 0 -12 -17 -15 -85 -15 -63 0 -84 -3 -83 -12 2 -7 -2 -13
-7 -13 -6 0 -10 -5 -10 -11 0 -7 11 -9 30 -6 31 7 49 -8 32 -25 -6 -6 -8 -18
-3 -27 9 -20 9 -45 -1 -49 -5 -1 -26 -10 -49 -19 -32 -13 -43 -13 -49 -3 -5 9
-9 9 -11 1 -3 -8 -10 -8 -24 3 -18 13 -17 14 19 25 26 7 45 7 57 0 13 -7 19
-6 19 2 0 6 -9 13 -20 16 -11 3 -20 9 -20 13 0 5 9 12 20 15 27 9 25 32 -2 31
-15 -1 -22 4 -20 13 2 10 -4 12 -20 7 -13 -4 -35 -9 -50 -12 -16 -4 -28 -10
-28 -15 0 -5 -7 -9 -16 -9 -8 0 -12 -4 -9 -10 3 -5 -1 -10 -9 -10 -9 0 -16 5
-16 11 0 6 -16 9 -37 7 -21 -2 -36 -7 -35 -12 6 -14 -21 -26 -60 -26 -21 0
-38 -4 -38 -10 0 -5 -9 -10 -19 -10 -19 0 -38 -17 -29 -26 3 -2 23 5 46 16 47
23 64 26 37 7 -17 -13 -17 -15 3 -35 12 -12 22 -33 22 -47 0 -26 18 -33 36
-15 15 15 128 24 149 12 15 -8 9 -12 -38 -22 -37 -9 -61 -10 -69 -3 -20 15
-43 10 -43 -10 0 -10 -7 -22 -16 -27 -20 -12 -204 -62 -246 -68 -18 -2 -33 -8
-33 -13 0 -12 -47 -11 -55 1 -4 6 -11 7 -17 4 -6 -4 -3 4 8 18 14 19 22 23 32
16 8 -7 8 0 -3 25 -16 38 -6 57 15 31 11 -12 15 -12 22 -2 6 9 8 2 4 -19 -6
-37 -5 -38 49 -19 30 11 39 19 37 33 -5 26 -8 27 -30 3 -16 -17 -21 -18 -30
-7 -17 20 -3 87 17 87 9 0 27 7 39 16 21 14 22 14 22 -5 0 -11 8 -25 18 -30 9
-6 12 -11 6 -11 -18 0 -25 -29 -13 -52 8 -15 14 -17 22 -9 6 6 29 11 50 11 34
0 39 3 34 20 -3 12 1 24 11 29 15 9 15 12 -5 32 l-22 22 6 -24 c3 -13 2 -21
-2 -17 -4 4 -14 0 -21 -10 -10 -12 -13 -13 -14 -3 0 7 -6 11 -14 8 -10 -4 -17
5 -23 31 -10 41 -22 43 -78 17 -45 -20 -69 -28 -81 -26 -23 3 -125 -28 -140
-44 -8 -8 -24 -15 -34 -15 -10 0 -22 -4 -25 -10 -3 -5 -24 -10 -45 -10 -30 0
-43 -6 -59 -26 -12 -15 -21 -37 -21 -50 0 -14 -8 -25 -20 -29 -21 -7 -28 -49
-10 -60 15 -9 12 -40 -7 -75 -17 -30 -17 -32 0 -44 22 -17 22 -32 0 -40 -14
-6 -14 -9 6 -23 21 -14 22 -17 7 -25 -14 -8 -15 -13 -5 -24 9 -11 9 -18 1 -26
-14 -14 -16 -54 -4 -62 5 -3 7 -33 5 -68 -9 -127 -8 -203 2 -220 6 -12 6 -27
0 -45 -6 -16 -9 -111 -7 -218 3 -224 1 -300 -7 -300 -6 0 -4 -112 2 -122 4 -6
3 -23 -2 -36 -7 -18 -6 -28 3 -36 9 -7 11 -37 9 -101 -1 -51 -5 -95 -8 -100
-4 -7 -6 -230 -3 -317 1 -19 16 -43 27 -43 3 0 5 21 3 47 -3 41 0 49 19 58 28
13 30 29 3 33 -15 2 -22 10 -21 25 0 18 5 22 26 21 14 -1 28 -3 31 -4 3 -1 9
-2 14 -1 9 2 26 -18 26 -31 0 -4 -6 -5 -14 -2 -7 3 -16 -3 -20 -12 -8 -21 -5
-24 20 -18 15 4 20 15 21 50 2 40 0 44 -16 39 -12 -4 -21 0 -25 12 -6 14 -9
15 -15 4 -5 -8 -17 -11 -30 -6 -26 8 -28 50 -3 64 16 10 16 12 -3 26 -16 13
-18 20 -9 53 5 20 7 54 3 74 -4 28 -1 46 12 68 10 16 14 30 9 30 -16 0 -11 20
6 27 20 7 33 -12 27 -38 -4 -15 0 -19 20 -19 21 0 26 6 32 36 8 46 -2 56 -56
58 -53 1 -65 27 -22 45 21 9 29 19 30 43 3 35 -9 48 -44 48 -12 0 -24 4 -28 9
-3 6 3 10 12 10 10 -1 29 2 43 6 19 5 22 4 10 -4 -12 -9 -13 -11 -1 -11 8 0
22 -7 31 -15 16 -14 17 -12 17 30 0 25 -3 45 -8 45 -4 0 -15 3 -25 7 -13 5
-16 3 -11 -10 3 -9 2 -19 -3 -22 -6 -4 -10 3 -10 14 0 10 -6 22 -12 25 -7 4 9
4 35 1 l48 -5 -3 47 c-2 38 -7 48 -23 52 -17 3 -18 1 -6 -13 16 -19 9 -31 -13
-23 -9 4 -12 14 -9 25 2 11 0 23 -6 26 -7 4 -11 -1 -11 -13 0 -12 -4 -21 -9
-21 -5 0 -16 -3 -25 -6 -12 -5 -14 4 -11 60 2 35 6 69 9 74 10 16 46 21 46 7
0 -8 8 -19 18 -24 9 -6 11 -11 5 -11 -20 0 -15 -40 5 -47 9 -4 20 -11 25 -17
4 -6 6 21 5 61 -2 65 -4 72 -25 78 -15 3 -20 10 -17 20 7 18 30 20 37 3 3 -7
6 -3 6 8 1 25 -22 48 -41 42 -7 -3 -13 -13 -13 -23 0 -10 -6 -20 -12 -22 -7
-3 -13 2 -13 11 0 9 -3 15 -7 15 -26 -4 -32 2 -23 25 6 16 5 28 -3 37 -10 11
-9 11 4 1 17 -13 29 -7 29 15 0 10 -6 12 -20 8 -24 -8 -26 11 -8 61 6 17 8 40
3 50 -10 24 -14 154 -5 159 4 2 16 -2 26 -10 10 -8 27 -15 36 -15 37 0 32 -39
-7 -60 -18 -10 -22 -17 -14 -26 7 -9 5 -16 -8 -24 -15 -9 -12 -10 16 -6 18 3
39 6 47 6 9 0 12 16 11 58 -1 31 2 62 6 69 12 19 -3 41 -24 36 -13 -4 -19 0
-19 12 0 9 -6 15 -12 12 -7 -2 -12 -12 -10 -21 2 -13 -3 -17 -20 -14 -30 4
-37 38 -9 45 17 4 19 8 10 19 -12 15 -5 44 11 44 5 0 10 -6 10 -14 0 -14 21
-25 45 -26 11 0 12 10 18 103 2 38 0 60 -8 63 -7 3 -10 18 -7 36 4 29 3 30
-21 26 -34 -6 -43 16 -17 42 18 18 18 19 -5 34 -22 15 -25 14 -39 -5 -8 -12
-12 -28 -9 -35 3 -8 -1 -14 -11 -14 -20 0 -21 34 -1 54 19 19 19 41 0 70 -14
22 -14 25 0 40 9 9 20 16 25 16 4 0 12 17 17 37 6 26 15 39 28 41 16 3 18 1 8
-9 -20 -20 -15 -30 11 -23 27 6 60 -21 52 -42 -6 -16 8 -18 34 -4 12 6 16 17
13 30 -6 23 15 28 23 5 4 -8 15 -15 26 -15 10 0 17 -4 13 -9 -3 -5 -1 -12 4
-16 6 -3 -8 -24 -29 -45 -22 -22 -40 -44 -40 -50 0 -5 -7 -10 -15 -10 -19 0
-19 -10 1 -38 19 -27 10 -62 -17 -62 -10 0 -19 -4 -19 -10 0 -5 9 -10 19 -10
10 0 21 -6 23 -12 6 -21 0 -1475 -7 -1703 -4 -115 -8 -234 -8 -262 -1 -29 2
-53 6 -53 5 0 6 -21 2 -47 -4 -27 -7 -132 -8 -236 -2 -160 -4 -185 -16 -170
-35 46 -41 83 -42 240 0 137 -2 154 -14 136 l-14 -20 -45 21 c-35 16 -44 25
-41 41 2 11 4 28 4 38 1 20 21 23 21 2 0 -7 8 -19 18 -24 16 -10 16 -10 -1
-11 -11 0 -17 -5 -14 -12 3 -11 74 -15 83 -6 4 6 9 176 4 173 -3 -2 -4 28 -2
66 3 64 2 69 -17 69 -12 0 -21 -5 -21 -11 0 -5 -4 -8 -9 -5 -5 3 -7 15 -4 25
3 10 0 22 -7 26 -14 9 -21 3 -24 -22 -2 -10 -11 -20 -22 -21 -10 -2 -23 -7
-27 -12 -10 -9 -12 -585 -2 -650 15 -100 118 -194 233 -212 39 -6 73 -17 82
-27 24 -27 78 -42 175 -48 129 -8 175 8 235 83 8 11 16 35 18 54 5 70 7 80 16
80 6 0 5 5 -1 11 -7 7 -8 21 -2 42 12 41 2 321 -11 325 -5 2 -10 10 -10 17 0
7 -8 16 -17 19 -54 20 -98 55 -124 101 -65 112 -78 155 -84 265 -7 141 -16
244 -22 253 -3 4 -7 49 -9 100 -6 119 -5 117 -18 117 -7 0 -7 3 1 8 11 7 8 40
-12 122 -4 14 -8 79 -10 145 -2 66 -7 140 -10 165 -3 25 -7 88 -10 140 -2 52
-6 106 -8 120 -7 42 -35 100 -48 98 -18 -5 -79 91 -79 124 0 29 20 53 84 103
14 11 33 37 42 58 20 44 68 79 62 45 -2 -7 6 -13 17 -13 13 0 20 7 20 20 0 11
-5 20 -12 20 -6 0 -14 3 -18 6 -8 8 82 22 94 15 5 -3 14 1 21 9 9 10 9 15 1
15 -6 0 -11 4 -11 10 0 5 7 7 15 4 26 -10 17 11 -20 46 -19 19 -35 40 -35 46
0 28 21 22 73 -21 l56 -45 28 23 c38 32 184 126 264 172 45 26 69 46 76 66 11
29 45 40 58 19 3 -5 1 -10 -6 -10 -7 0 -10 -2 -7 -5 2 -3 44 11 92 30 108 44
265 83 365 90 109 8 294 37 307 47 7 5 14 3 18 -7 7 -20 36 -19 51 2 14 19 60
21 210 9 113 -9 191 -39 156 -61 -35 -21 35 -44 80 -26 22 8 26 7 25 -7 -1
-13 6 -16 29 -15 24 2 42 -9 93 -57 38 -35 61 -64 57 -71 -6 -8 -9 -8 -15 1
-5 8 -20 9 -49 3 -48 -9 -55 -28 -12 -29 17 -1 42 -9 56 -18 15 -10 37 -15 49
-12 21 5 21 5 1 -10 -20 -15 -20 -15 -1 -30 11 -8 22 -14 25 -14 17 0 6 -54
-15 -77 -28 -31 -30 -48 -6 -62 16 -9 16 -10 -1 -17 -11 -4 -16 -13 -12 -23 8
-25 -22 -127 -52 -178 -14 -25 -51 -72 -81 -104 -35 -38 -48 -59 -38 -59 24 0
19 -23 -10 -44 -35 -25 -56 -6 -28 26 10 12 -10 -1 -46 -29 -36 -28 -64 -56
-62 -62 1 -6 -1 -10 -5 -10 -19 3 -33 -3 -66 -30 -20 -15 -34 -31 -30 -35 3
-3 0 -6 -8 -6 -11 0 -11 -2 1 -10 12 -8 11 -10 -7 -10 -12 0 -24 -4 -28 -9 -3
-5 -17 -8 -31 -5 -16 3 -23 1 -19 -6 3 -5 -2 -13 -11 -17 -10 -4 -19 -2 -21 4
-2 6 -34 -5 -76 -26 -40 -20 -97 -44 -127 -55 -30 -10 -59 -24 -65 -31 -5 -6
-23 -16 -39 -21 -38 -13 -47 -57 -16 -74 29 -16 262 2 286 22 7 5 36 12 65 15
29 3 64 12 78 20 15 7 35 13 47 13 11 0 24 3 28 8 4 4 11 7 14 7 20 2 151 50
204 75 34 17 71 30 82 30 18 -1 19 -2 4 -10 -22 -14 -16 -44 10 -48 17 -3 22
2 22 18 0 12 4 18 11 15 6 -4 13 2 16 14 6 22 25 30 21 9 -2 -7 7 -14 19 -16
17 -2 23 3 28 27 5 22 12 31 27 31 11 0 18 5 15 13 -2 7 -18 11 -43 9 l-39 -3
27 15 c15 8 40 17 57 21 21 4 31 13 31 25 0 23 36 32 52 13 8 -9 22 -13 39 -9
22 4 27 2 22 -9 -4 -11 2 -15 19 -15 26 0 56 40 44 59 -4 6 0 11 8 11 9 0 16
7 16 15 0 8 7 15 15 15 8 0 15 5 15 10 0 6 -13 10 -30 10 -34 0 -42 15 -9 17
25 2 49 21 49 39 0 13 12 18 33 15 4 0 7 6 7 15 0 11 -8 14 -32 12 -18 -2 -33
2 -35 10 -3 8 7 12 31 12 20 0 36 -4 36 -10 0 -5 9 -10 20 -10 15 0 20 -7 20
-25 0 -31 29 -34 55 -5 24 26 13 54 -20 48 -14 -3 -26 0 -29 8 -3 8 -15 14
-26 14 -11 0 -20 3 -20 8 0 13 84 1 93 -14 9 -16 37 -7 37 13 0 8 -4 11 -10 8
-5 -3 -10 0 -10 9 0 8 5 16 12 18 7 3 9 11 3 24 -4 10 -8 22 -7 25 0 3 2 31 3
62 1 31 5 57 9 57 4 0 7 15 8 33 1 19 5 45 10 58 5 13 8 61 6 106 -2 45 1 85
5 88 5 3 7 23 4 45 -5 38 -4 40 20 40 l26 0 -6 -72 c-3 -40 -6 -82 -7 -93 -1
-11 9 -30 21 -42 21 -20 23 -28 17 -88 l-5 -65 26 0 c17 0 35 -11 51 -29 29
-35 58 -35 60 0 2 30 -13 49 -38 49 -17 0 -18 3 -8 15 7 8 9 15 4 15 -5 1 6 7
24 15 21 9 32 21 32 35 0 11 5 20 10 20 6 0 10 11 10 25 0 20 -5 25 -25 25
-14 0 -25 4 -25 10 0 11 60 2 75 -11 15 -14 45 -10 45 6 0 8 7 15 16 15 23 0
13 33 -14 45 -24 11 -28 20 -12 30 6 3 10 19 10 35 0 33 15 48 22 22 7 -24 38
-24 38 0 0 10 -7 18 -17 18 -17 1 -17 1 0 11 25 14 22 49 -4 49 l-20 0 20 29
c17 23 21 44 21 106 l0 78 -42 -7 c-33 -4 -39 -3 -25 5 9 5 17 17 17 24 0 8 5
14 11 12 6 -1 14 4 16 11 3 8 -7 12 -31 12 -20 0 -36 5 -36 10 0 6 -11 10 -24
10 -15 0 -26 7 -29 20 -4 17 -14 20 -70 20 l-65 0 -7 33 c-4 17 -13 36 -19 40
-7 6 -6 7 4 4 8 -2 16 -13 18 -25 4 -25 42 -31 42 -7 0 9 11 20 25 25 14 5 25
14 25 20 0 5 11 12 25 16 36 9 33 38 -3 31 l-28 -6 4 80 c3 72 2 79 -15 79
-11 0 -24 -5 -30 -11 -7 -7 -12 -6 -17 6 -3 9 0 18 8 21 9 3 14 18 14 36 -1
29 -2 30 -40 24 -37 -6 -38 -6 -32 19 6 26 6 26 -47 23 -33 -2 -53 -7 -52 -14
3 -15 -68 -27 -81 -14 -7 7 -5 10 5 11 7 1 25 2 39 2 14 1 24 7 23 15 -2 6 6
12 16 12 10 0 22 7 25 16 3 8 10 13 15 9 22 -13 23 19 1 37 -29 24 -52 23 -76
-3 -15 -16 -16 -24 -6 -39 15 -25 15 -31 0 -27 -7 1 -17 11 -23 22 -6 11 -21
25 -33 30 -13 6 -25 20 -29 33 -9 35 -46 25 -58 -15 -9 -32 -28 -43 -39 -24
-7 10 -32 9 -43 -3 -4 -4 -1 -11 7 -16 13 -8 13 -12 -2 -27 -16 -16 -19 -16
-30 -1 -7 9 -36 19 -64 22 -47 6 -54 4 -83 -23 -33 -31 -95 -49 -106 -30 -5 7
-23 9 -52 4 l-44 -6 26 46 c23 42 24 50 13 76 -16 36 -39 37 -55 3z m-624
-373 c21 -1 23 -4 18 -36 -5 -30 -3 -35 15 -35 17 0 20 5 16 36 -4 35 -4 36
26 30 16 -4 31 -8 34 -10 2 -2 0 -25 -3 -50 -7 -42 -10 -46 -40 -52 -48 -9
-75 3 -75 31 0 13 -4 26 -8 29 -10 6 -48 -35 -44 -47 1 -5 -5 -7 -15 -5 -23 4
-31 48 -9 48 16 0 32 37 21 48 -9 10 -65 -61 -60 -75 2 -7 -1 -12 -8 -10 -7 1
-11 -4 -9 -10 1 -9 -12 -13 -42 -13 -41 0 -45 2 -48 27 -4 38 -28 42 -28 4 0
-22 -4 -29 -14 -25 -8 3 -17 1 -21 -5 -8 -14 -58 -14 -72 0 -8 8 -16 5 -29 -9
-11 -10 -36 -22 -56 -25 -41 -6 -50 6 -18 23 15 8 18 17 14 39 -5 23 -2 32 14
40 17 9 23 8 30 -5 6 -10 16 -15 26 -11 9 4 16 1 16 -5 0 -15 40 37 41 54 0 7
4 3 9 -9 12 -29 33 -29 59 -1 19 19 22 20 38 6 19 -15 53 -13 53 3 0 17 43 28
95 24 28 -1 61 -3 74 -4z m425 -31 c5 -5 6 -13 2 -17 -4 -4 -11 -1 -16 7 -12
20 -33 0 -24 -23 9 -23 41 -21 47 3 4 16 13 20 46 18 33 -1 40 -5 36 -17 -4
-13 3 -16 38 -13 26 2 59 -3 85 -15 44 -19 59 -40 20 -29 -58 18 -64 18 -47 4
24 -20 31 -48 14 -55 -10 -3 -13 -12 -10 -24 11 -34 -4 -20 -24 24 l-20 42 -1
-32 c0 -17 6 -34 13 -36 6 -3 3 -6 -9 -6 -11 -1 -29 6 -40 14 -18 14 -18 16
-1 29 18 14 24 42 7 31 -6 -3 -13 0 -16 8 -9 24 -44 8 -44 -19 0 -17 -5 -24
-17 -23 -34 2 -68 15 -68 26 0 6 -3 15 -7 19 -5 4 -8 2 -8 -4 0 -7 -7 -12 -16
-12 -11 0 -14 6 -9 21 6 18 5 19 -14 7 -12 -7 -21 -19 -21 -26 0 -8 -5 -10
-12 -6 -7 4 -26 7 -44 6 -27 -2 -32 1 -37 25 -3 15 -1 31 5 34 7 4 6 9 -1 13
-6 4 -11 16 -11 26 0 18 7 19 97 15 53 -2 101 -9 107 -15z m417 -142 c47 -30
49 -32 34 -54 -8 -13 -15 -33 -15 -44 0 -18 3 -19 20 -10 11 6 20 18 20 26 0
11 9 14 33 12 32 -3 48 -33 17 -33 -8 0 -23 -17 -32 -37 -19 -42 -38 -50 -38
-16 0 17 -3 19 -12 10 -9 -9 -18 -5 -39 17 -15 16 -31 25 -36 20 -4 -4 -14 -4
-22 0 -20 12 6 50 31 43 13 -3 18 1 18 17 0 11 -4 21 -9 21 -5 0 -11 9 -14 20
-6 23 -37 27 -37 5 0 -8 5 -15 10 -15 25 0 7 -15 -20 -16 -25 -1 -28 1 -20 17
7 11 7 20 0 24 -5 3 -10 12 -10 20 0 23 67 8 121 -27z m238 -219 c42 -85 43
-88 35 -150 -6 -38 -14 -64 -23 -67 -11 -4 -13 4 -8 37 4 31 1 43 -11 50 -12
7 -13 13 -5 23 16 21 21 67 8 78 -8 6 -29 7 -61 1 -45 -9 -51 -8 -77 17 -20
19 -24 28 -15 34 19 12 30 10 22 -4 -4 -7 2 -5 13 5 24 21 43 22 43 1 0 -8 5
-12 11 -9 6 4 8 14 5 22 -4 9 -1 23 6 31 11 13 10 15 -4 9 -10 -3 -18 -2 -18
4 0 6 8 9 18 7 10 -2 34 -37 61 -89z"/>
<path d="M7366 7471 c-7 -10 -1 -15 17 -12 4 0 7 -5 7 -12 0 -7 9 -18 21 -25
20 -13 20 -14 3 -26 -20 -15 -13 -46 10 -46 10 0 14 -9 13 -27 -2 -25 1 -28
36 -31 42 -4 64 23 33 40 -9 5 -14 14 -11 19 4 5 11 7 16 4 5 -4 9 8 9 24 0
26 -4 31 -24 31 -13 0 -26 6 -29 14 -7 18 1 26 25 26 10 0 18 5 18 10 0 6 -17
10 -39 10 -21 0 -52 3 -69 6 -17 4 -32 1 -36 -5z"/>
<path d="M5280 6909 c-47 -16 -105 -38 -130 -50 -43 -19 -46 -23 -42 -55 3
-22 8 -31 16 -27 6 4 23 6 37 5 28 -3 43 16 33 43 -7 18 -1 18 46 5 49 -14
107 -4 113 21 3 11 14 19 26 19 21 0 28 14 12 24 -5 3 -7 15 -4 26 7 26 -3 25
-107 -11z"/>
<path d="M6459 6534 c-39 -20 -64 -61 -48 -80 17 -20 -6 -44 -42 -44 -16 0
-29 -5 -29 -10 0 -6 -11 -15 -24 -20 -18 -7 -22 -14 -19 -34 4 -21 0 -26 -21
-32 -29 -7 -34 -22 -11 -30 25 -10 17 -25 -11 -20 -20 4 -23 2 -15 -8 7 -8 22
-11 38 -8 19 3 24 2 18 -7 -4 -7 -13 -10 -21 -7 -7 3 -16 1 -18 -3 -3 -5 -23
-6 -45 -4 -47 6 -58 -7 -28 -35 35 -32 51 -30 117 18 109 78 188 193 204 298
7 46 0 50 -45 26z"/>
<path d="M6159 6488 c-1 -13 -2 -30 -3 -39 -2 -25 -39 -69 -58 -69 -10 0 -18
-4 -18 -10 0 -11 21 -4 68 22 42 23 42 23 42 -9 0 -21 7 -31 27 -40 33 -16 53
-17 53 -3 0 6 -11 10 -25 10 -36 0 -32 29 9 63 36 28 52 35 41 17 -4 -6 5 -10
19 -10 14 0 26 5 26 10 0 6 -8 10 -17 10 -13 0 -14 3 -5 12 33 33 -13 51 -72
28 -21 -8 -27 -6 -36 10 -15 28 -50 26 -51 -2z"/>
<path d="M890 6473 c-58 -6 -137 -33 -156 -54 -9 -10 -25 -19 -34 -19 -9 0
-27 -11 -40 -25 -13 -14 -29 -25 -37 -25 -7 0 -13 -4 -13 -9 0 -5 -27 -38 -61
-72 -33 -35 -68 -77 -76 -94 -9 -16 -24 -41 -34 -54 -11 -13 -19 -32 -19 -42
0 -10 -6 -22 -14 -26 -15 -9 -28 -53 -29 -100 0 -18 -4 -33 -9 -33 -20 0 -29
-66 -33 -249 -5 -203 6 -327 32 -368 8 -12 13 -27 12 -35 -4 -18 22 -92 35
-100 6 -4 16 -22 22 -40 7 -22 18 -34 32 -36 26 -4 27 0 8 36 -7 15 -16 51
-20 81 -4 29 -8 57 -11 61 -2 4 -5 49 -5 101 -1 52 -6 117 -12 145 -8 37 -7
75 2 140 12 88 15 115 24 224 5 55 28 124 45 134 5 4 17 28 25 54 9 27 32 64
50 84 19 20 32 38 30 41 -10 10 67 63 117 81 29 10 65 27 79 38 20 14 50 21
118 25 55 4 90 10 89 16 -1 6 6 13 16 15 12 2 17 -3 17 -17 0 -17 9 -21 60
-27 33 -4 60 -11 60 -15 0 -5 -5 -9 -12 -9 -20 0 -2 -11 27 -16 15 -3 34 -11
42 -19 8 -8 20 -15 27 -15 7 0 21 -9 31 -20 18 -20 18 -21 -1 -14 -10 4 -25
11 -31 17 -7 5 -13 5 -13 0 0 -13 29 -52 71 -98 21 -22 48 -53 60 -70 55 -72
122 -142 157 -162 43 -26 83 -45 88 -41 5 6 -61 87 -71 88 -6 0 -19 12 -30 27
-64 87 -89 118 -97 121 -4 2 -8 10 -8 18 0 8 -5 14 -10 14 -6 0 -16 4 -23 10
-61 49 -71 59 -65 66 4 4 26 -10 48 -30 22 -20 47 -36 55 -36 9 0 18 -7 21
-15 4 -8 12 -15 18 -15 7 0 25 -14 42 -31 16 -17 42 -37 57 -45 15 -8 32 -26
37 -39 7 -18 19 -25 54 -30 24 -4 47 -13 50 -20 6 -18 112 -33 230 -34 115 -1
159 -11 237 -52 31 -16 66 -29 77 -29 12 0 22 -8 25 -22 10 -47 33 -93 51
-107 14 -11 15 -15 5 -22 -11 -7 -11 -11 -1 -17 13 -9 13 -62 0 -62 -5 0 -5
-12 -1 -27 4 -16 7 -40 6 -55 0 -20 4 -28 16 -28 12 0 10 -5 -9 -20 -19 -15
-22 -22 -12 -28 12 -8 13 -21 12 -117 -1 -49 -3 -67 -13 -82 -4 -6 -2 -24 3
-39 6 -15 8 -35 4 -43 -12 -25 -12 -81 -1 -81 7 0 7 -4 0 -11 -9 -9 -9 -17 0
-32 9 -15 9 -21 0 -24 -7 -3 -13 -13 -13 -23 0 -10 6 -21 13 -23 8 -4 8 -6 0
-6 -8 -1 -9 -11 -2 -37 7 -23 7 -40 1 -47 -6 -7 -8 -32 -5 -57 3 -25 5 -53 4
-62 0 -10 0 -33 0 -50 1 -18 1 -66 2 -105 0 -42 5 -73 11 -73 5 0 1 -6 -10
-14 -16 -13 -17 -18 -6 -35 16 -27 16 -138 0 -143 -9 -3 -9 -12 2 -38 11 -26
11 -35 2 -38 -17 -5 -15 -28 4 -58 15 -23 15 -26 0 -43 -19 -21 -20 -44 -3
-71 10 -17 9 -22 -3 -30 -13 -9 -11 -13 9 -29 21 -16 22 -19 6 -25 -12 -4 -14
-10 -7 -19 6 -6 10 -30 9 -51 -1 -23 4 -41 11 -44 7 -2 18 -18 26 -35 7 -18
31 -55 54 -83 31 -39 49 -53 77 -58 20 -4 39 -14 42 -22 4 -10 18 -14 45 -12
29 1 44 -3 53 -16 13 -18 65 -26 196 -31 30 -1 61 -5 67 -9 6 -4 49 -9 95 -11
80 -3 187 -36 187 -57 0 -4 7 -8 15 -8 8 0 12 -6 9 -14 -3 -8 4 -24 15 -35 13
-13 21 -34 21 -55 0 -38 18 -96 30 -96 4 0 13 -14 21 -31 17 -43 76 -68 157
-69 47 0 62 3 62 14 0 8 -5 16 -12 18 -8 3 -12 21 -11 47 2 39 0 43 -19 38
-12 -3 -36 0 -54 8 -35 14 -38 22 -65 154 -7 36 -20 71 -28 78 -72 62 -87 73
-98 73 -7 0 -21 4 -31 9 -59 30 -99 37 -272 48 -47 2 -110 11 -141 19 -31 8
-72 14 -90 14 -19 0 -56 11 -84 25 -27 13 -56 25 -62 25 -7 0 -13 8 -13 18 0
10 -10 24 -23 31 -14 7 -24 23 -25 39 -1 14 -7 31 -12 36 -6 6 -10 27 -10 48
0 24 -5 38 -13 38 -7 0 -13 11 -12 27 0 22 -5 28 -22 28 -13 0 -23 3 -23 8 0
4 0 14 0 22 0 9 12 18 30 21 23 5 29 11 29 33 -1 37 -1 101 0 206 2 205 2 331
0 340 0 6 0 20 0 32 1 12 -6 26 -16 32 -17 10 -17 10 2 11 20 0 20 6 19 268
-1 147 -2 272 -3 277 -1 6 -1 42 0 80 6 235 -14 359 -68 425 -81 99 -110 120
-207 156 -63 24 -211 47 -311 49 -105 1 -161 22 -213 79 -19 20 -38 36 -43 36
-10 0 -63 44 -88 74 -21 24 -87 66 -104 66 -7 0 -29 14 -47 30 -19 17 -64 45
-100 63 -36 18 -69 37 -75 43 -26 28 -193 49 -305 37z"/>
<path d="M890 6246 c-30 -11 -59 -35 -149 -120 -32 -31 -49 -55 -43 -61 4 -4
-1 -11 -11 -16 -9 -6 -17 -18 -17 -27 0 -9 -7 -26 -15 -36 -8 -11 -15 -28 -15
-38 0 -11 -7 -33 -16 -50 -8 -16 -17 -49 -19 -72 -2 -22 -8 -59 -13 -81 -5
-23 -5 -51 -1 -64 5 -12 5 -41 -1 -64 -14 -66 -3 -316 20 -432 6 -27 13 -67
15 -88 3 -21 12 -51 20 -66 8 -16 16 -41 19 -56 3 -14 10 -33 16 -40 7 -8 9
-19 5 -25 -3 -5 -1 -10 4 -10 6 0 11 -6 11 -12 0 -21 43 -118 52 -118 5 0 6
-4 3 -10 -3 -5 -1 -10 5 -10 6 0 9 -4 6 -8 -5 -8 4 -29 55 -138 16 -34 29 -69
29 -78 0 -9 4 -16 9 -16 5 0 12 -13 16 -30 4 -16 11 -30 16 -30 6 0 8 -4 4 -9
-3 -6 3 -25 14 -45 20 -35 37 -100 33 -123 -2 -7 2 -13 8 -13 6 0 9 -3 7 -7
-3 -5 0 -19 6 -33 5 -14 9 -40 8 -57 -2 -18 2 -33 7 -33 10 0 12 -14 12 -79 0
-38 8 -94 24 -176 10 -48 66 -153 95 -178 47 -39 148 -68 213 -60 64 7 161 52
206 96 39 37 86 124 102 190 9 33 9 64 1 115 -12 79 -10 92 20 110 26 17 37 7
21 -18 -9 -15 -8 -34 5 -91 14 -66 14 -77 -1 -139 -8 -37 -25 -87 -35 -111
-39 -86 -165 -182 -276 -210 -48 -12 -49 -13 -21 -20 32 -9 170 -5 201 6 99
35 129 58 166 129 17 32 20 54 18 135 -1 53 -6 106 -10 119 -5 12 -11 69 -13
127 -4 101 -6 105 -35 132 -27 25 -31 35 -32 90 -2 49 -8 72 -32 109 -16 27
-41 57 -56 69 -14 11 -32 28 -40 37 -9 10 -23 18 -33 18 -10 0 -18 4 -18 8 0
8 -67 45 -84 46 -5 1 -15 25 -22 53 -18 72 -49 130 -95 180 -56 61 -107 145
-118 193 -11 50 -3 112 16 123 7 4 13 15 13 22 0 8 4 15 8 15 5 0 18 9 29 19
12 11 46 27 76 36 50 14 56 19 64 53 11 44 5 162 -9 180 -6 6 -27 12 -47 13
-20 0 -30 3 -23 6 6 2 12 11 12 18 0 33 99 95 151 95 30 0 89 -53 89 -81 0
-22 75 -59 122 -59 42 0 98 18 98 32 0 5 4 7 10 3 10 -6 43 38 46 62 2 8 10
23 18 32 9 10 16 27 16 39 0 11 5 24 10 27 6 4 8 16 4 28 -4 12 -7 32 -6 45 3
33 -22 77 -57 102 -40 27 -122 31 -149 7 -82 -74 -173 -17 -380 240 -129 160
-250 220 -362 179z m415 -794 c12 -8 14 -16 19 -84 4 -58 -11 -112 -34 -116
-25 -4 -140 -65 -140 -74 0 -4 -10 -18 -22 -30 -17 -17 -21 -34 -22 -82 -1
-74 32 -146 111 -239 50 -59 111 -163 101 -172 -2 -2 -16 19 -31 48 -15 29
-51 77 -80 108 -28 31 -68 87 -87 124 -29 59 -34 77 -32 131 2 88 40 139 140
189 l72 37 0 68 c0 38 -4 72 -10 75 -12 7 -13 25 -2 25 4 0 12 -4 17 -8z
m-188 -570 c11 -18 42 -58 69 -89 44 -50 90 -121 106 -164 5 -12 1 -15 -18
-11 -13 2 -27 8 -30 13 -3 5 -13 9 -23 9 -10 0 -38 15 -62 32 -24 18 -53 37
-63 43 -39 21 -81 124 -77 194 1 24 9 60 17 80 l15 36 23 -55 c12 -30 32 -70
43 -88z"/>
<path d="M6497 5419 c-21 -12 -43 -33 -48 -46 -5 -13 -13 -22 -18 -19 -9 6
-31 -36 -31 -59 0 -8 -4 -15 -9 -15 -9 0 -48 -111 -71 -200 -7 -25 -17 -58
-24 -75 -26 -62 -37 -106 -40 -160 -3 -56 -3 -56 36 -76 21 -11 56 -35 77 -54
l38 -35 2 50 c0 28 7 63 15 78 7 15 17 43 21 62 4 19 18 56 31 82 45 88 61 77
82 -59 15 -97 18 -158 27 -578 3 -121 8 -235 11 -252 6 -37 35 -58 69 -49 26
7 34 30 37 117 2 51 4 55 24 51 29 -5 92 25 107 52 18 33 15 225 -8 476 -6 65
-6 125 2 280 14 287 11 318 -34 362 -75 74 -90 82 -177 85 -68 2 -87 -1 -119
-18z m227 -110 c28 -31 28 -35 22 -103 -4 -39 -11 -96 -15 -126 -7 -45 -9 -49
-10 -20 -10 170 -21 184 -148 197 -46 5 -57 2 -97 -25 -51 -35 -56 -30 -25 25
30 54 79 102 114 112 41 11 122 -19 159 -60z"/>
<path d="M1895 4253 c-78 -41 -115 -97 -115 -176 0 -43 5 -58 23 -75 13 -12
30 -22 38 -22 8 0 20 -9 27 -20 9 -14 23 -20 51 -20 22 0 43 -4 46 -10 10 -16
85 -12 91 5 4 9 19 15 40 15 46 0 64 34 45 86 -7 20 -11 36 -9 37 64 33 63 32
61 78 -3 55 -18 67 -132 96 -103 26 -127 27 -166 6z"/>
<path d="M6975 4220 c-3 -5 -3 -10 0 -10 4 0 -7 -18 -24 -39 -17 -21 -31 -42
-31 -46 0 -4 -11 -20 -25 -37 -14 -16 -25 -38 -25 -48 0 -10 -3 -20 -7 -22 -5
-1 -17 -21 -28 -43 -10 -22 -24 -47 -31 -55 -23 -29 -64 -298 -58 -387 1 -23
-4 -59 -10 -80 -7 -21 -11 -65 -9 -98 2 -33 4 -67 4 -75 -5 -227 -13 -412 -21
-435 -5 -16 -10 -52 -11 -80 -1 -27 -6 -55 -11 -61 -4 -6 -9 -23 -10 -38 -1
-14 -5 -26 -9 -26 -4 0 -17 -21 -30 -47 -12 -27 -33 -62 -46 -80 -28 -39 -14
-54 16 -15 34 42 81 132 88 165 1 10 8 28 15 40 6 12 13 36 14 52 1 17 5 53 9
80 12 79 14 115 16 365 1 129 6 245 10 257 4 12 9 67 10 123 1 55 5 103 10
105 4 3 8 18 7 33 -2 55 24 187 38 195 8 4 14 14 14 22 0 8 11 30 24 50 14 20
28 49 31 66 4 16 15 35 26 42 10 6 19 18 19 25 0 8 11 27 25 44 14 16 25 38
25 49 0 21 -6 24 -15 9z"/>
<path d="M504 4108 c-58 -39 -94 -102 -94 -164 0 -47 30 -94 60 -94 11 0 24
-9 30 -20 8 -14 21 -20 48 -20 20 0 46 -7 56 -15 27 -20 52 -19 76 5 11 11 33
20 50 20 23 0 33 6 40 25 5 14 8 30 6 37 -17 53 -16 68 2 68 30 0 50 31 54 86
3 49 2 51 -22 51 -14 0 -67 12 -118 27 -51 14 -104 26 -117 26 -12 0 -45 -15
-71 -32z"/>
<path d="M4180 3769 c-68 -20 -117 -48 -152 -87 -44 -49 -73 -130 -64 -182 3
-21 2 -41 -3 -44 -4 -3 -11 -19 -14 -35 -5 -25 -12 -30 -49 -37 -24 -4 -104
-8 -178 -8 l-135 -1 0 -55 0 -55 43 -3 c24 -2 50 2 58 9 10 8 14 8 14 0 0 -16
183 -14 245 3 28 7 61 19 74 27 29 18 62 82 67 128 14 153 23 173 96 211 46
24 127 26 288 8 89 -10 111 -9 138 3 20 8 30 19 27 27 -3 8 -5 23 -5 35 0 38
-16 50 -67 52 -26 1 -115 5 -198 9 -93 3 -163 2 -185 -5z"/>
<path d="M761 3281 c-7 -16 -24 -40 -38 -53 -38 -36 -54 -73 -52 -127 2 -42 5
-50 20 -48 10 1 17 -2 16 -8 -3 -15 87 -33 123 -24 9 2 15 -2 14 -13 -1 -10 4
-14 12 -11 18 6 46 -16 41 -31 -5 -12 -2 -13 77 -18 38 -2 51 -7 57 -23 7 -19
8 -19 8 1 1 17 9 23 39 27 20 4 40 6 45 7 17 0 67 32 81 52 9 12 16 41 16 65
0 35 -5 45 -32 64 -47 34 -268 73 -282 50 -4 -6 -20 -11 -36 -11 -16 0 -40 -4
-54 -10 l-25 -9 21 44 c17 35 20 51 12 72 -14 40 -48 42 -63 4z"/>
<path d="M1321 3141 c-11 -27 -21 -59 -21 -70 0 -12 -4 -21 -10 -21 -5 0 -10
-4 -10 -10 0 -5 3 -9 8 -9 19 3 26 -2 13 -10 -9 -6 -11 -16 -6 -27 6 -17 8
-17 16 4 5 13 13 20 19 17 6 -4 8 -10 5 -15 -3 -4 2 -13 9 -19 10 -8 16 -9 21
-1 10 16 45 12 45 -5 0 -18 16 -18 55 0 l30 13 -37 1 c-52 1 -48 21 5 22 23 0
50 2 60 4 25 5 21 -12 -5 -19 l-23 -7 25 -13 c14 -7 45 -16 70 -19 37 -5 41
-4 23 5 -34 16 -30 40 6 35 15 -3 38 -10 50 -16 12 -7 36 -9 56 -5 36 6 45 18
23 28 -7 3 3 5 23 3 45 -3 54 10 54 78 0 30 5 54 13 61 27 21 -13 33 -130 40
-82 5 -117 3 -122 -5 -4 -6 -23 -11 -42 -11 -42 0 -95 -21 -123 -49 l-21 -21
0 29 c0 44 -10 61 -35 61 -18 0 -27 -11 -44 -49z"/>
<path d="M4376 2651 c-21 -23 -14 -41 17 -41 30 0 208 -35 282 -55 33 -10 71
-19 85 -22 37 -8 120 -45 120 -55 0 -5 13 -6 30 -3 20 4 36 0 48 -12 21 -20
42 -27 42 -15 0 15 -61 54 -76 48 -11 -4 -14 -1 -12 12 5 25 46 17 80 -15 15
-14 32 -45 37 -67 5 -23 9 -33 10 -23 1 9 3 17 6 17 14 0 84 -53 80 -61 -3 -4
4 -10 15 -14 11 -3 20 -13 20 -21 0 -17 9 -18 44 -4 32 12 25 35 -12 46 -15 4
-30 7 -34 6 -12 -3 -10 26 2 33 16 10 70 -24 90 -58 24 -38 25 -48 5 -41 -8 4
-17 -1 -21 -10 -3 -9 -17 -16 -30 -16 -29 0 -53 -38 -33 -51 10 -6 8 -9 -8 -9
-13 0 -32 -9 -43 -20 -17 -17 -18 -24 -10 -41 6 -11 19 -19 28 -18 9 2 34 -3
55 -10 29 -10 37 -18 37 -37 0 -35 45 -34 54 1 4 14 11 23 16 20 6 -3 10 -1
10 5 0 19 -46 61 -68 63 -27 2 -28 12 -4 29 26 18 47 58 30 58 -8 0 -9 3 -1
11 7 7 18 3 38 -15 15 -14 31 -26 35 -26 3 0 19 -18 36 -40 32 -43 40 -46 68
-25 19 14 18 15 -4 23 -20 8 -21 10 -6 24 14 15 11 21 -41 67 -31 28 -60 51
-63 51 -4 0 -47 23 -96 52 -239 139 -365 186 -667 249 -167 34 -169 35 -191
10z"/>
<path d="M5895 2626 c-43 -21 -94 -64 -178 -153 -31 -33 0 -31 35 2 15 14 31
25 35 25 5 0 15 8 24 18 8 9 28 28 45 42 17 14 33 33 37 43 8 20 30 22 49 5 7
-7 35 -13 61 -14 43 0 48 2 43 18 -4 17 0 18 27 13 30 -6 31 -5 13 10 -31 24
-130 19 -191 -9z"/>
<path d="M4203 2489 c-16 -16 -17 -39 -2 -39 6 0 9 -9 6 -20 -3 -11 0 -23 5
-27 6 -3 8 -1 5 4 -4 6 2 13 13 16 29 8 25 -18 -5 -31 -14 -6 -25 -16 -25 -22
0 -17 32 -63 62 -88 15 -13 25 -28 22 -35 -5 -13 194 -220 221 -231 8 -3 15
-18 15 -34 0 -15 5 -33 12 -40 8 -8 8 -15 0 -25 -7 -8 -9 -17 -5 -20 3 -4 1
-7 -6 -7 -6 0 -22 -21 -34 -47 -12 -27 -38 -70 -57 -97 -19 -26 -35 -52 -35
-57 0 -6 -4 -13 -10 -17 -5 -4 -27 -32 -48 -63 -40 -59 -76 -92 -188 -169
l-69 -48 44 -11 c67 -16 82 -14 121 20 19 17 35 27 35 23 0 -4 6 1 14 11 10
13 11 25 5 37 -15 28 -10 57 12 79 19 19 29 21 75 15 47 -5 56 -3 78 18 15 13
26 28 26 35 0 6 5 11 11 11 8 0 8 5 -1 15 -10 12 -8 16 12 24 24 9 98 108 98
130 0 6 4 11 8 11 9 0 11 17 12 104 0 33 -4 64 -10 70 -5 5 -10 19 -10 29 0
11 -12 28 -26 39 -14 11 -36 38 -50 59 -13 22 -30 39 -38 39 -8 0 -16 7 -20
15 -3 8 -9 15 -13 14 -29 -5 -43 3 -43 24 0 16 -3 18 -9 8 -7 -10 -11 -9 -23
8 -8 11 -35 35 -59 53 -24 17 -47 35 -50 41 -4 6 -8 5 -10 -1 -3 -7 -11 -5
-23 4 -19 14 -19 14 2 37 12 13 19 27 15 30 -3 4 -1 7 5 7 23 0 12 41 -20 76
-27 28 -35 33 -45 23z"/>
<path d="M5837 2458 c-44 -54 -171 -290 -192 -356 -7 -23 -6 -23 77 -21 45 1
119 7 162 14 91 14 110 30 121 96 8 46 -3 60 -42 53 -33 -6 -29 2 17 32 l40
27 0 78 c0 71 -2 79 -19 79 -11 0 -40 -16 -65 -35 -26 -19 -49 -35 -52 -35 -3
0 9 18 26 40 47 59 10 54 -53 -7 l-49 -48 24 40 c58 94 60 110 5 43z"/>
<path d="M3835 2425 c-27 -6 -69 -21 -92 -33 -54 -28 -65 -28 -118 4 -39 23
-53 25 -129 23 -47 -2 -83 -5 -81 -8 6 -5 -35 -41 -47 -41 -4 0 -10 0 -13 0
-2 0 -15 -10 -29 -23 -13 -12 -30 -27 -38 -34 -7 -7 -19 -18 -25 -25 -7 -7
-18 -18 -24 -24 -43 -43 -69 -74 -69 -83 0 -6 -3 -11 -7 -11 -5 0 -19 -17 -33
-38 -14 -20 -35 -48 -47 -62 -25 -27 -29 -40 -13 -40 6 0 10 5 10 11 0 8 49
35 80 44 3 1 12 4 20 7 40 16 86 16 141 2 73 -19 144 -48 153 -63 4 -6 16 -11
27 -11 10 0 28 -9 40 -21 12 -12 35 -25 52 -30 54 -16 253 -10 266 8 3 5 33
18 66 28 33 11 62 23 65 26 10 13 100 22 100 10 0 -8 6 -9 18 -3 29 16 242 33
242 20 0 -5 17 -8 38 -8 34 1 36 2 18 15 -11 8 -35 18 -53 21 -24 5 -33 11
-29 21 3 8 2 11 -4 8 -15 -9 -31 30 -17 44 7 7 8 12 2 11 -21 -5 -36 0 -30 10
3 5 -6 12 -20 16 -16 4 -24 12 -21 20 3 7 -4 20 -14 27 -11 8 -17 16 -14 20
11 11 -112 120 -162 144 -58 27 -135 33 -209 18z"/>
<path d="M3205 2023 c-5 -5 -36 -18 -67 -28 l-57 -19 4 -59 c7 -102 52 -217
85 -217 10 0 22 -5 25 -10 4 -6 11 -8 16 -5 5 4 13 -2 17 -13 4 -11 27 -37 52
-58 25 -22 61 -55 80 -74 20 -20 60 -48 90 -63 30 -15 62 -31 70 -36 40 -23
73 -31 170 -37 165 -10 174 -10 185 -3 6 4 42 9 80 13 39 3 75 7 82 8 16 2
123 86 122 96 -3 16 1 32 9 31 29 -5 54 3 49 15 -4 10 1 13 16 10 12 -2 16 -2
9 2 -17 8 -5 24 19 24 10 0 19 4 19 10 0 5 -3 9 -7 9 -26 -4 -35 4 -14 12 18
7 27 6 33 -3 5 -9 7 -5 5 10 -2 13 -9 27 -17 32 -15 9 -5 30 15 30 20 0 24 23
6 38 -14 11 -14 14 8 30 46 34 101 93 95 103 -3 5 -1 16 6 24 8 9 8 15 0 20
-8 5 -7 12 2 23 11 15 11 15 -3 5 -9 -7 -19 -10 -22 -6 -10 9 -57 10 -57 2 0
-4 -13 -4 -30 1 -16 5 -30 6 -30 3 0 -3 -6 0 -13 6 -8 6 -17 8 -21 4 -3 -4
-43 -8 -89 -9 -108 -3 -162 -11 -217 -33 -43 -18 -216 -52 -270 -54 -46 -1
-199 54 -247 90 -17 12 -37 23 -43 23 -6 0 -28 11 -49 25 -42 28 -100 42 -116
28z"/>
<path d="M5650 1962 c0 -13 57 -96 138 -203 41 -53 89 -102 135 -136 40 -29
78 -57 85 -63 9 -8 12 -7 12 4 0 8 -5 18 -11 21 -6 4 -8 13 -5 21 3 8 -14 29
-42 51 -26 21 -78 72 -117 113 -38 41 -88 93 -110 115 -22 22 -44 49 -50 59
-11 21 -35 33 -35 18z"/>
<path d="M5732 1941 c8 -11 48 -50 88 -86 41 -35 79 -74 85 -85 11 -20 87 -70
106 -70 12 0 6 91 -7 111 -5 8 -9 21 -9 29 0 8 -16 23 -35 32 -19 10 -35 23
-35 28 0 16 -28 31 -36 19 -3 -6 -27 1 -58 17 -38 20 -55 24 -63 16 -8 -8 -17
-8 -31 0 -18 9 -19 9 -5 -11z"/>
<path d="M3280 1481 c0 -12 113 -100 173 -135 89 -52 188 -71 377 -69 101 1
203 19 197 36 -3 8 -35 11 -108 9 -57 -2 -163 4 -234 12 -123 13 -136 17 -235
65 -57 29 -111 58 -120 65 -20 18 -50 27 -50 17z"/>
</g>
</svg>
